<svg xmlns="http://www.w3.org/2000/svg" width="128" height="128" viewBox="0 0 128 128" fill="none">
  <defs>
    <linearGradient id="bg" x1="10" y1="10" x2="118" y2="118" gradientUnits="userSpaceOnUse">
      <stop offset="0" stop-color="#15389B" />
      <stop offset="0.58" stop-color="#1D7DEA" />
      <stop offset="1" stop-color="#27D8FF" />
    </linearGradient>
    <linearGradient id="symbol" x1="26" y1="16" x2="88" y2="98" gradientUnits="userSpaceOnUse">
      <stop offset="0" stop-color="#0E1D6F" />
      <stop offset="0.55" stop-color="#195CCB" />
      <stop offset="1" stop-color="#24D6FF" />
    </linearGradient>
    <linearGradient id="trail" x1="26" y1="88" x2="98" y2="38" gradientUnits="userSpaceOnUse">
      <stop offset="0" stop-color="#27D8FF" />
      <stop offset="1" stop-color="#FFFFFF" />
    </linearGradient>
  </defs>
  <rect width="128" height="128" rx="28" fill="url(#bg)" />
  <rect x="8" y="8" width="112" height="112" rx="22" stroke="#FFFFFF" stroke-opacity="0.12" />
  <path
    d="M20 96V48.8C20 42.28 25.28 37 31.8 37H43.34L60.9 56.14L67.9 37H87.1L63.7 96H48.98V60.76L31.66 96H20Z"
    fill="#FFFFFF"
    fill-opacity="0.96"
  />
  <path
    d="M31.7 96V48.26H37.88L59.74 72.18L68.66 48.26H82.58L63.58 96H52.48V65.64L37.68 96H31.7Z"
    fill="url(#symbol)"
  />
  <path
    d="M8 103.4L36.5 93.34L85.18 43.86C87.7 41.3 91.84 41.26 94.4 43.78C96.96 46.3 97 50.44 94.48 53L45.86 102.36L8 103.4Z"
    fill="url(#trail)"
  />
  <circle cx="93.4" cy="44.6" r="7.4" fill="#FFFFFF" />
  <circle cx="93.4" cy="44.6" r="4.2" fill="#27D8FF" />
</svg>
